<svg width="6160" height="6160" viewBox="0 0 6160 6160" fill="none" xmlns="http://www.w3.org/2000/svg">
<rect width="6160" height="6160" fill="white"/>
<path d="M2925.23 4325.84C2933.43 4345.04 2957.35 4356.39 2978.25 4339.01C2991.02 4328.39 2999.16 4306.87 2982.34 4289.39C2959.81 4265.98 2935.43 4283.69 2930.84 4289.39C2924.4 4297.39 2917.58 4307.92 2925.23 4325.84Z" stroke="#535353" stroke-width="7"/>
<path d="M2924.84 4294.6L2510.84 3860.6" stroke="#535353" stroke-width="7"/>
<path d="M2515.51 3865.5L2511.01 3861L2497.51 3842C2497.51 3842 2491.06 3833 2482.56 3815.5C2474.06 3798 2470.93 3791.5 2465.51 3776C2460.08 3760.5 2459.56 3725 2459.56 3725" stroke="#535353" stroke-width="7"/>
<path d="M2937.11 4285.1L2523.11 3851.1" stroke="#535353" stroke-width="7"/>
<path d="M2528.01 3856.5L2523.51 3851.5L2510.54 3832C2510.54 3832 2504.21 3824.64 2495.51 3807C2486.8 3789.36 2483.15 3782 2479.51 3767C2475.86 3752 2475.52 3725 2475.52 3725" stroke="#535353" stroke-width="7"/>
<path d="M2459.51 3725.7V425" stroke="#535353" stroke-width="7"/>
<path d="M2459.51 428.5V424.5L2459.32 423.556C2458.12 417.554 2456.01 411.771 2453.06 406.408L2452.01 404.5L2438.51 386.5" stroke="#535353" stroke-width="7"/>
<path d="M2475.51 3726.5V3688" stroke="#535353" stroke-width="7"/>
<path d="M2475.51 3688V425" stroke="#535353" stroke-width="7"/>
<path d="M2410.31 355.695C2424.36 388.614 2465.37 408.079 2501.21 378.274C2523.1 360.069 2537.05 323.18 2508.22 293.217C2469.6 253.078 2427.79 283.44 2419.92 293.217C2408.9 306.923 2397.2 324.986 2410.31 355.695Z" stroke="#535353" stroke-width="7"/>
<path d="M2475.51 425V420.39C2475.51 420.39 2476.59 411.171 2480.94 404C2485.65 396.226 2494.51 383 2494.51 383" stroke="#535353" stroke-width="7"/>
<path d="M2909.5 4356C2923 4342 2923.5 4339.47 2923.5 4319.5" stroke="#535353" stroke-width="7"/>
<path d="M3004.84 4366.5C2983.84 4347 2988.95 4349.94 2961.09 4347.1" stroke="#535353" stroke-width="7"/>
<path d="M2914 4361.5C2935.5 4347.6 2926.8 4350.1 2956.3 4347.6" stroke="#535353" stroke-width="7"/>
<path d="M3010.34 4360.5C3000.84 4352 2993.48 4339.23 2990.8 4319.28" stroke="#535353" stroke-width="7"/>
<path d="M3024.3 4239.6C3007.58 4255.37 2992.22 4273.87 2962.95 4278.28" stroke="#535353" stroke-width="7"/>
<path d="M2991.8 4304.82C2997.3 4281.1 3009.3 4266.6 3030.8 4244.1" stroke="#535353" stroke-width="7"/>
<path d="M2743.5 4432H2768.5L2821.5 4416L2864.5 4395.5L2914.5 4356.5" stroke="#535353" stroke-width="15"/>
<path d="M1210 4432H2751" stroke="#535353" stroke-width="15"/>
<path d="M3005.5 4361.5L3338 4689" stroke="#535353" stroke-width="15"/>
<path d="M3024.3 4245.6L4732.8 2514.6" stroke="#535353" stroke-width="15"/>
<path d="M4206.34 3889L2495.05 750.852L2480.05 750.823" stroke="#535353" stroke-width="15"/>
<path d="M3445 4582.3L4261.19 3750" stroke="#535353" stroke-width="15"/>
<path d="M3900.5 4125.5L3464.5 3689.5" stroke="#535353" stroke-width="15"/>
<path d="M2967 4845.5V4603" stroke="#535353" stroke-width="7"/>
<path d="M2913 4775.5H2933V4742.5V4667" stroke="#535353" stroke-width="7"/>
<path d="M2982.84 4816H2959.84" stroke="#535353" stroke-width="7"/>
<path d="M2961 4810H2925" stroke="#535353" stroke-width="19" stroke-linejoin="round"/>
<path d="M1137 4846.08L3010.42 4846.08C3010.42 4846.08 3086.29 4844.19 3110 4840.75C3133.71 4837.3 3159.5 4826.13 3171 4820.75C3179.37 4816.83 3200.45 4804.85 3211.3 4798.61C3215.77 4796.04 3219.99 4793.08 3223.93 4789.77L3264.5 4755.75C3264.5 4755.75 3314 4711.25 3322.5 4701.75C3331 4692.25 3411.5 4615.75 3411.5 4615.75L3448 4579.25" stroke="#535353" stroke-width="15"/>
<path d="M2606 4952H2558" stroke="#535353" stroke-width="23" stroke-linejoin="round"/>
<path d="M2228 4430.5V5602" stroke="#535353" stroke-width="15"/>
<path d="M1843.5 4844.51V4431.99" stroke="#535353" stroke-width="6"/>
<path d="M1854 4842.5V4435.5" stroke="#535353" stroke-width="6"/>
<path d="M2228.51 4649.76L1845.49 4649.74" stroke="#535353" stroke-width="6"/>
<path d="M2228.51 4657.75H1843.49" stroke="#535353" stroke-width="6"/>
<path d="M2229.22 4710.87L2042.55 4711.52C2042.55 4711.52 2006.11 4712.66 1981.86 4706.98C1964.93 4703.01 1957 4701 1946.5 4691C1936 4681 1937.5 4659 1937.5 4659" stroke="#535353" stroke-width="6"/>
<path d="M1596 4378V4425.5" stroke="#535353" stroke-width="7"/>
<path d="M2980 4847V5270.5" stroke="#535353" stroke-width="7"/>
<path d="M2565 4958H2622" stroke="#535353" stroke-width="7"/>
<path d="M2228 5070H2980" stroke="#535353" stroke-width="7"/>
<path d="M2679 4427V4642.5" stroke="#535353" stroke-width="10"/>
<path d="M2716.99 4603.5V4844" stroke="#535353" stroke-width="10"/>
<path d="M2452.29 4645.7L2717.41 4645.71M2597.3 4605.24L2816.43 4605.24L3017.5 4605.24" stroke="#535353" stroke-width="7"/>
<path d="M1504 4586.09V4378V4844" stroke="#535353" stroke-width="11"/>
<path d="M1137 4599.09V4371.5V4857" stroke="#535353" stroke-width="11"/>
<path d="M2969.5 4666.5H2890.5H2799C2799 4666.5 2789.69 4672.5 2785.5 4672.5C2776 4672.5 2761 4672.5 2761 4672.5H2718.5" stroke="#535353" stroke-width="7"/>
<path d="M2797 4667V4641.5V4618V4602.5" stroke="#535353" stroke-width="7"/>
<path d="M2781 4602.5V4505.5" stroke="#535353" stroke-width="7"/>
<path d="M2832 4604V4511" stroke="#535353" stroke-width="7"/>
<path d="M2838 4508C2838 4508 2836.69 4502.29 2830.5 4492C2824.31 4481.71 2819.5 4414.5 2819.5 4414.5" stroke="#535353" stroke-width="7"/>
<path d="M3051 4411.5L3021.5 4435.5L2978 4487L2953.36 4497.09L2919.96 4508H2903.69H2778" stroke="#535353" stroke-width="7"/>
<path d="M2820 4780V4665" stroke="#535353" stroke-width="7"/>
<path d="M2893 4783C2893 4783 2888.5 4783 2869.5 4783C2850.5 4783 2831.5 4783 2831.5 4783H2748" stroke="#535353" stroke-width="7"/>
<path d="M2746.5 4843.01V4672.99" stroke="#535353" stroke-width="7"/>
<path d="M2622 5070V4846" stroke="#535353" stroke-width="7"/>
<path d="M2881 4780V4665" stroke="#535353" stroke-width="7"/>
<path d="M2921 4604.5V4509" stroke="#535353" stroke-width="7"/>
<path d="M2941 4604V4502" stroke="#535353" stroke-width="7"/>
<path d="M2977 4608.5V4487" stroke="#535353" stroke-width="7"/>
<path d="M2744 4603.5V4506" stroke="#535353" stroke-width="7"/>
</svg>
