<svg width="6160" height="6160" viewBox="0 0 6160 6160" fill="none" xmlns="http://www.w3.org/2000/svg">
<rect width="6160" height="6160" fill="white"/>
<path d="M2967.43 4175.74C2975.63 4194.94 2999.55 4206.3 3020.46 4188.91C3033.23 4178.29 3041.36 4156.77 3024.55 4139.29C3002.02 4115.88 2977.63 4133.59 2973.04 4139.29C2966.61 4147.29 2959.79 4157.83 2967.43 4175.74Z" stroke="#535353" stroke-width="7"/>
<path d="M2684.45 4584.67C2687.96 4592.9 2698.22 4597.77 2707.18 4590.32C2712.65 4585.77 2716.13 4576.55 2708.93 4569.05C2699.27 4559.02 2688.82 4566.61 2686.85 4569.05C2684.1 4572.48 2681.17 4577 2684.45 4584.67Z" stroke="#535353" stroke-width="18"/>
<path d="M2967.05 4144.5L2553.05 3710.5" stroke="#535353" stroke-width="7"/>
<path d="M2556 3713.5L2551.5 3709L2538 3690C2538 3690 2531.55 3681 2523.05 3663.5C2514.55 3646 2511.42 3639.5 2506 3624C2500.58 3608.5 2500.05 3573 2500.05 3573" stroke="#535353" stroke-width="7"/>
<path d="M2979.31 4135L2565.31 3701" stroke="#535353" stroke-width="7"/>
<path d="M2568.5 3704.5L2564 3699.5L2551.03 3680C2551.03 3680 2544.7 3672.64 2536 3655C2527.3 3637.36 2523.64 3630 2520 3615C2516.36 3600 2516.01 3573 2516.01 3573" stroke="#535353" stroke-width="7"/>
<path d="M2500 3573.7V273" stroke="#535353" stroke-width="7"/>
<path d="M2500 276.5V272.5L2499.81 271.556C2498.61 265.554 2496.5 259.771 2493.55 254.408L2492.5 252.5L2479 234.5" stroke="#535353" stroke-width="7"/>
<path d="M2516 3574.5V3536" stroke="#535353" stroke-width="7"/>
<path d="M2516 3536V273" stroke="#535353" stroke-width="7"/>
<path d="M2450.8 203.695C2464.86 236.614 2505.87 256.079 2541.7 226.274C2563.59 208.069 2577.54 171.18 2548.71 141.217C2510.09 101.078 2468.28 131.44 2460.42 141.217C2449.39 154.923 2437.69 172.986 2450.8 203.695Z" stroke="#535353" stroke-width="7"/>
<path d="M2516 273V268.39C2516 268.39 2517.09 259.171 2521.43 252C2526.14 244.226 2535 231 2535 231" stroke="#535353" stroke-width="7"/>
<path d="M2932 4231.5C2950.5 4207.5 2964.5 4195 2964.5 4167" stroke="#535353" stroke-width="7"/>
<path d="M3065 4234.5C3044 4215 3031.15 4199.84 3003.3 4197" stroke="#535353" stroke-width="7"/>
<path d="M2936.5 4238C2953.5 4222 2969 4200 2998.5 4197.5" stroke="#535353" stroke-width="7"/>
<path d="M3071 4229.5C3055 4213 3037.81 4198.39 3033 4169.18" stroke="#535353" stroke-width="7"/>
<path d="M3066.5 4089.5C3049.78 4105.27 3034.43 4123.77 3005.15 4128.18" stroke="#535353" stroke-width="7"/>
<path d="M3034.01 4154.72C3039.5 4131 3051.5 4116.5 3073 4094" stroke="#535353" stroke-width="7"/>
<path d="M2675 4378H2682.45L2762.49 4360.8L2843.46 4316.16L2937 4232" stroke="#535353" stroke-width="15"/>
<path d="M1137 4378H2678" stroke="#535353" stroke-width="15"/>
<path d="M3060 4224.5L3445.24 4583" stroke="#535353" stroke-width="15"/>
<path d="M3066.5 4095.5L4775 2364.5" stroke="#535353" stroke-width="15"/>
<path d="M4263.45 3761.88L2532.5 600.5L2517.5 600.5" stroke="#535353" stroke-width="15"/>
<path d="M3447 4584L4264.15 3752.65" stroke="#535353" stroke-width="15"/>
<path d="M3900.5 4125.5L3464.5 3689.5" stroke="#535353" stroke-width="15"/>
<path d="M1137.5 4849.33L3010.92 4849.33C3010.92 4849.33 3086.79 4847.45 3110.5 4844C3134.21 4840.55 3160 4829.38 3171.5 4824C3179.87 4820.09 3200.95 4808.1 3211.8 4801.86C3216.27 4799.3 3220.49 4796.34 3224.43 4793.02L3265 4759C3265 4759 3314.5 4714.5 3323 4705C3331.5 4695.5 3412 4619 3412 4619L3448.5 4582.5" stroke="#535353" stroke-width="15"/>
<path d="M2979.84 4846V4560.5" stroke="#535353" stroke-width="7"/>
<path d="M2923 4765.5H2943V4716V4648" stroke="#535353" stroke-width="7"/>
<path d="M2982.84 4816H2959.84" stroke="#535353" stroke-width="7"/>
<path d="M2967 4810H2919" stroke="#535353" stroke-width="23" stroke-linejoin="round"/>
<path d="M2606 4952H2558" stroke="#535353" stroke-width="23" stroke-linejoin="round"/>
<path d="M2228 4379V5602" stroke="#535353" stroke-width="11"/>
<path d="M1851 4449.5V4380" stroke="#535353" stroke-width="15"/>
<path d="M1851 4464.5V4395" stroke="#535353" stroke-width="110" stroke-linejoin="round"/>
<path d="M1845 4844.5V4448" stroke="#535353" stroke-width="6"/>
<path d="M1854 4842.5V4449.5" stroke="#535353" stroke-width="6"/>
<path d="M2228 4606L1847 4610" stroke="#535353" stroke-width="6"/>
<path d="M2228 4614L1847 4618" stroke="#535353" stroke-width="6"/>
<path d="M2228.22 4689.87L2043.73 4689.87C2043.73 4689.87 2007.73 4691.37 1983.73 4682.87C1966.98 4676.93 1954.23 4655.37 1954.23 4639.87C1954.23 4624.37 1954.23 4617.87 1954.23 4617.87" stroke="#535353" stroke-width="6"/>
<path d="M1596 4378V4425.5" stroke="#535353" stroke-width="7"/>
<path d="M1856 4616L1847 4615.5" stroke="#535353" stroke-width="7"/>
<path d="M2980 4847V5270.5" stroke="#535353" stroke-width="7"/>
<path d="M2565 4958H2622" stroke="#535353" stroke-width="7"/>
<path d="M2228 5070H2980" stroke="#535353" stroke-width="7"/>
<path d="M2677.5 4378.5L2678 4601" stroke="#535353" stroke-width="7"/>
<path d="M2716.99 4557V4844" stroke="#535353" stroke-width="7"/>
<path d="M2450.29 4599.43L2716.29 4599.43M2595.79 4558.95L2815.64 4558.95L3035.5 4558.95" stroke="#535353" stroke-width="7"/>
<path d="M1504 4586.09V4378V4844" stroke="#535353" stroke-width="11"/>
<path d="M1137 4599.09V4371.5V4857" stroke="#535353" stroke-width="11"/>
<path d="M2980 4651H2811C2811 4651 2805.39 4654.43 2801.5 4656C2794 4659.03 2761.5 4657.5 2761.5 4657.5H2719" stroke="#535353" stroke-width="7"/>
<path d="M2811 4652V4607V4562" stroke="#535353" stroke-width="7"/>
<path d="M2781 4557V4460" stroke="#535353" stroke-width="7"/>
<path d="M2831 4556V4463" stroke="#535353" stroke-width="7"/>
<path d="M2858 4465C2858 4465 2855 4454.5 2848 4444C2841 4433.5 2838 4322.5 2838 4322.5" stroke="#535353" stroke-width="7"/>
<path d="M3119.5 4285.5L3095.5 4313.5L2992.5 4432.5L2917.5 4463H2778" stroke="#535353" stroke-width="7"/>
<path d="M2830 4764V4654" stroke="#535353" stroke-width="7"/>
<path d="M2891.5 4767.5C2891.5 4767.5 2885.5 4767.5 2866.5 4767.5C2847.5 4767.5 2834.5 4765.5 2834.5 4765.5L2748 4764" stroke="#535353" stroke-width="7"/>
<path d="M2745 4843V4658.5" stroke="#535353" stroke-width="7"/>
<path d="M2622 5070V4846" stroke="#535353" stroke-width="7"/>
<path d="M2888 4769V4654" stroke="#535353" stroke-width="7"/>
<path d="M2921 4558.5V4463" stroke="#535353" stroke-width="7"/>
<path d="M2941 4556V4454" stroke="#535353" stroke-width="7"/>
<path d="M3246 4405C3246 4405 3170.3 4508.93 3099.5 4544.5C3086.28 4551.14 3077.04 4553.79 3062.5 4556.5C3049.64 4558.9 3031 4559 3031 4559" stroke="#535353" stroke-width="7"/>
<path d="M2991 4556.5V4435" stroke="#535353" stroke-width="7"/>
<path d="M2751 4556.5V4443" stroke="#535353" stroke-width="7"/>
</svg>
