<svg width="6160" height="6160" viewBox="0 0 6160 6160" fill="none" xmlns="http://www.w3.org/2000/svg">
<rect width="6160" height="6160" fill="white"/>
<path d="M2925.38 4330.84C2933.58 4350.04 2957.5 4361.39 2978.41 4344.01C2991.18 4333.39 2999.31 4311.87 2982.5 4294.39C2959.97 4270.98 2935.58 4288.69 2930.99 4294.39C2924.56 4302.39 2917.74 4312.92 2925.38 4330.84Z" stroke="#535353" stroke-width="7"/>
<path d="M2925 4299.6L2511 3865.6" stroke="#535353" stroke-width="7"/>
<path d="M2515.51 3865.5L2511.01 3861L2497.51 3842C2497.51 3842 2491.06 3833 2482.56 3815.5C2474.06 3798 2470.93 3791.5 2465.51 3776C2460.08 3760.5 2459.56 3725 2459.56 3725" stroke="#535353" stroke-width="7"/>
<path d="M2937.26 4290.1L2523.26 3856.1" stroke="#535353" stroke-width="7"/>
<path d="M2528.01 3856.5L2523.51 3851.5L2510.54 3832C2510.54 3832 2504.21 3824.64 2495.51 3807C2486.8 3789.36 2483.15 3782 2479.51 3767C2475.86 3752 2475.52 3725 2475.52 3725" stroke="#535353" stroke-width="7"/>
<path d="M2459.51 3725.7V425" stroke="#535353" stroke-width="7"/>
<path d="M2459.51 428.5V424.5L2459.32 423.556C2458.12 417.554 2456.01 411.771 2453.06 406.408L2452.01 404.5L2438.51 386.5" stroke="#535353" stroke-width="7"/>
<path d="M2475.51 3726.5V3688" stroke="#535353" stroke-width="7"/>
<path d="M2475.51 3688V425" stroke="#535353" stroke-width="7"/>
<path d="M2410.31 355.695C2424.36 388.614 2465.37 408.079 2501.21 378.274C2523.1 360.069 2537.05 323.18 2508.22 293.217C2469.6 253.078 2427.79 283.44 2419.92 293.217C2408.9 306.923 2397.2 324.986 2410.31 355.695Z" stroke="#535353" stroke-width="7"/>
<path d="M2475.51 425V420.39C2475.51 420.39 2476.59 411.171 2480.94 404C2485.65 396.226 2494.51 383 2494.51 383" stroke="#535353" stroke-width="7"/>
<path d="M2909.66 4361C2923.16 4347 2923.66 4344.47 2923.66 4324.5" stroke="#535353" stroke-width="7"/>
<path d="M3005 4371.5C2984 4352 2989.1 4354.94 2961.25 4352.1" stroke="#535353" stroke-width="7"/>
<path d="M2914.16 4366.5C2935.66 4352.6 2926.95 4355.1 2956.45 4352.6" stroke="#535353" stroke-width="7"/>
<path d="M3010.5 4365.5C3001 4357 2993.64 4344.23 2990.95 4324.28" stroke="#535353" stroke-width="7"/>
<path d="M3024.45 4244.6C3007.73 4260.37 2992.38 4278.87 2963.1 4283.28" stroke="#535353" stroke-width="7"/>
<path d="M2991.96 4309.82C2997.45 4286.1 3009.45 4271.6 3030.95 4249.1" stroke="#535353" stroke-width="7"/>
<path d="M2700.5 4434L2755.5 4428L2808 4418.5L2864 4398.5L2914.5 4361.5" stroke="#535353" stroke-width="15"/>
<path d="M1227 4434H2701.5" stroke="#535353" stroke-width="15"/>
<path d="M3005.66 4366.5L3338.16 4694" stroke="#535353" stroke-width="15"/>
<path d="M3024.45 4250.6L4732.95 2519.6" stroke="#535353" stroke-width="15"/>
<path d="M4206.34 3889L2495.05 750.852L2480.05 750.823" stroke="#535353" stroke-width="15"/>
<path d="M3445 4582.3L4261.19 3750" stroke="#535353" stroke-width="15"/>
<path d="M3900.5 4125.5L3464.5 3689.5" stroke="#535353" stroke-width="15"/>
<path d="M2967 4846V4593" stroke="#535353" stroke-width="7"/>
<path d="M2913 4775.5H2933V4742.5V4678.5" stroke="#535353" stroke-width="7"/>
<path d="M2967 4817H2944" stroke="#535353" stroke-width="7"/>
<path d="M2957 4813.5H2921" stroke="#535353" stroke-width="19" stroke-linejoin="round"/>
<path d="M1137 4846.08L3010.42 4846.08C3010.42 4846.08 3086.29 4844.19 3110 4840.75C3133.71 4837.3 3159.5 4826.13 3171 4820.75C3179.37 4816.83 3200.45 4804.85 3211.3 4798.61C3215.77 4796.04 3219.99 4793.08 3223.93 4789.77L3264.5 4755.75C3264.5 4755.75 3314 4711.25 3322.5 4701.75C3331 4692.25 3411.5 4615.75 3411.5 4615.75L3448 4579.25" stroke="#535353" stroke-width="15"/>
<path d="M2606 4952H2558" stroke="#535353" stroke-width="23" stroke-linejoin="round"/>
<path d="M2228 4430.5V5602" stroke="#535353" stroke-width="15"/>
<path d="M1843.5 4844.51V4431.99" stroke="#535353" stroke-width="6"/>
<path d="M1854 4842.5V4435.5" stroke="#535353" stroke-width="6"/>
<path d="M2228.51 4649.76L1845.49 4649.74" stroke="#535353" stroke-width="6"/>
<path d="M2228.51 4657.75H1843.49" stroke="#535353" stroke-width="6"/>
<path d="M2229.22 4710.87L2042.55 4711.52C2042.55 4711.52 2006.11 4712.66 1981.86 4706.98C1964.93 4703.01 1957 4701 1946.5 4691C1936 4681 1937.5 4659 1937.5 4659" stroke="#535353" stroke-width="6"/>
<path d="M1596 4378V4425.5" stroke="#535353" stroke-width="7"/>
<path d="M2952.5 4844V5267.5" stroke="#535353" stroke-width="7"/>
<path d="M2565 4958H2622" stroke="#535353" stroke-width="7"/>
<path d="M2228 5070H2980" stroke="#535353" stroke-width="7"/>
<path d="M2677 4434V4625.5" stroke="#535353" stroke-width="10"/>
<path d="M2714 4589V4844.5" stroke="#535353" stroke-width="10"/>
<path d="M2452.29 4625.49L2717.41 4625.5M2597.3 4588.09L2816.43 4588.09L2904 4593L2966.5 4596.5L2996 4596.5L3025 4596.5" stroke="#535353" stroke-width="7"/>
<path d="M1504 4586.09V4378V4844" stroke="#535353" stroke-width="11"/>
<path d="M1137 4599.09V4371.5V4857" stroke="#535353" stroke-width="11"/>
<path d="M2969 4680H2890H2799.5C2799.5 4680 2799 4684 2793 4687.5C2784.79 4692.29 2760.5 4692 2760.5 4692H2718" stroke="#535353" stroke-width="7"/>
<path d="M2800 4681V4650.85V4623.06V4587" stroke="#535353" stroke-width="7"/>
<path d="M2773 4589V4497" stroke="#535353" stroke-width="7"/>
<path d="M2823 4590V4500" stroke="#535353" stroke-width="7"/>
<path d="M2839.5 4500.5C2839.5 4500.5 2834.59 4493.7 2828.5 4484.5C2822.41 4475.3 2817 4419 2817 4419" stroke="#535353" stroke-width="7"/>
<path d="M3051 4411.5L3021.5 4435.5L2977.5 4464.5L2939 4488.5L2913.5 4496L2900.5 4499.5H2841H2769.5" stroke="#535353" stroke-width="7"/>
<path d="M2820 4786.5V4679" stroke="#535353" stroke-width="7"/>
<path d="M2897 4787C2897 4787 2888 4787 2869 4787C2850 4787 2833.5 4787 2833.5 4787L2756 4787" stroke="#535353" stroke-width="7"/>
<path d="M2755.47 4839.02L2755.47 4776.01L2753 4692.01" stroke="#535353" stroke-width="7"/>
<path d="M2622 5070V4846" stroke="#535353" stroke-width="7"/>
<path d="M2881 4785V4680" stroke="#535353" stroke-width="7"/>
<path d="M2920.25 4592V4495" stroke="#535353" stroke-width="7"/>
<path d="M2941 4595V4488" stroke="#535353" stroke-width="7"/>
<path d="M2977 4595V4464" stroke="#535353" stroke-width="7"/>
<path d="M2746 4589V4506" stroke="#535353" stroke-width="7"/>
</svg>
